<mxfile host="app.diagrams.net" modified="2022-06-21T13:19:33.038Z" agent="5.0 (Macintosh; Intel Mac OS X 10_15_7) AppleWebKit/537.36 (KHTML, like Gecko) Chrome/102.0.0.0 Safari/537.36" etag="xdUxCJam01YpPvTZMfHW" version="20.0.0" type="github">
  <diagram id="hyl-wc78csXvTnxoRP_k" name="Page-1">
    <mxGraphModel dx="2066" dy="1072" grid="1" gridSize="10" guides="1" tooltips="1" connect="1" arrows="1" fold="1" page="1" pageScale="1" pageWidth="827" pageHeight="1169" math="0" shadow="0">
      <root>
        <mxCell id="0" />
        <mxCell id="1" parent="0" />
        <mxCell id="dNTlJmtYWJp2JSvYEbvU-2" value="&lt;font style=&quot;font-size: 16px;&quot; face=&quot;Times New Roman&quot;&gt;[Phoebe]:Absolutely, oh I promise. Tell her what?&lt;/font&gt;" style="rounded=1;whiteSpace=wrap;html=1;align=left;fillColor=none;" parent="1" vertex="1">
          <mxGeometry x="140" y="620" width="380" height="60" as="geometry" />
        </mxCell>
        <mxCell id="dNTlJmtYWJp2JSvYEbvU-3" value="&lt;font style=&quot;font-size: 16px;&quot; face=&quot;Times New Roman&quot;&gt;[Pete]:Thanks a lot.&lt;/font&gt;" style="rounded=1;whiteSpace=wrap;html=1;align=left;fillColor=#b1ddf0;strokeColor=#10739e;" parent="1" vertex="1">
          <mxGeometry x="100" y="700" width="380" height="60" as="geometry" />
        </mxCell>
        <mxCell id="dNTlJmtYWJp2JSvYEbvU-4" value="&lt;font face=&quot;Times New Roman&quot; style=&quot;font-size: 16px;&quot;&gt;[Carol]:I don&#39;t care. I am trying to get a person out of my body here, and you&#39;re not making it any easier.&amp;nbsp;Now go!&lt;/font&gt;" style="rounded=1;whiteSpace=wrap;html=1;fillColor=none;align=left;" parent="1" vertex="1">
          <mxGeometry x="100" y="360" width="380" height="60" as="geometry" />
        </mxCell>
        <mxCell id="dNTlJmtYWJp2JSvYEbvU-5" value="&lt;span style=&quot;color: rgb(0, 0, 0); font-style: normal; font-variant-ligatures: normal; font-variant-caps: normal; font-weight: 400; letter-spacing: normal; orphans: 2; text-indent: 0px; text-transform: none; widows: 2; word-spacing: 0px; -webkit-text-stroke-width: 0px; text-decoration-thickness: initial; text-decoration-style: initial; text-decoration-color: initial; float: none; display: inline !important;&quot;&gt;&lt;font face=&quot;Times New Roman&quot; style=&quot;font-size: 16px;&quot;&gt;[Ross]:Thanks a lot.&lt;/font&gt;&lt;/span&gt;" style="rounded=1;whiteSpace=wrap;html=1;align=left;fillColor=#b1ddf0;strokeColor=#10739e;" parent="1" vertex="1">
          <mxGeometry x="140" y="440" width="380" height="60" as="geometry" />
        </mxCell>
        <mxCell id="dNTlJmtYWJp2JSvYEbvU-6" value="&lt;font style=&quot;font-size: 16px;&quot; face=&quot;Times New Roman&quot;&gt;[Pete]:Listen, can you promise me that you wonâ€™t tell her though?&lt;/font&gt;" style="rounded=1;whiteSpace=wrap;html=1;align=left;fillColor=none;" parent="1" vertex="1">
          <mxGeometry x="100" y="540" width="380" height="60" as="geometry" />
        </mxCell>
        <mxCell id="dNTlJmtYWJp2JSvYEbvU-7" value="" style="endArrow=none;html=1;rounded=0;entryX=1;entryY=0.5;entryDx=0;entryDy=0;" parent="1" edge="1">
          <mxGeometry width="50" height="50" relative="1" as="geometry">
            <mxPoint x="100" y="520.5" as="sourcePoint" />
            <mxPoint x="540" y="520" as="targetPoint" />
          </mxGeometry>
        </mxCell>
        <mxCell id="dNTlJmtYWJp2JSvYEbvU-10" value="" style="shape=image;verticalLabelPosition=bottom;verticalAlign=top;imageAspect=0;aspect=fixed;image=data:image/svg+xml,PHN2ZyB4bWxucz0iaHR0cDovL3d3dy53My5vcmcvMjAwMC9zdmciIHZpZXdCb3g9IjAgMCAzNiAzNiI+PHBhdGggZmlsbD0iI0ZGQ0M0RCIgZD0iTTM2IDE4YzAgOS45NDEtOC4wNTkgMTgtMTggMTgtOS45NCAwLTE4LTguMDU5LTE4LTE4QzAgOC4wNiA4LjA2IDAgMTggMGM5Ljk0MSAwIDE4IDguMDYgMTggMTgiLz48cGF0aCBmaWxsPSIjNjY0NTAwIiBkPSJNMjUuNDg1IDI5Ljg3OUMyNS40NCAyOS43IDI0LjMxNyAyNS41IDE4IDI1LjVjLTYuMzE4IDAtNy40NCA0LjItNy40ODUgNC4zNzktLjA1NS4yMTcuMDQzLjQ0Mi4yMzcuNTU0LjE5NS4xMDkuNDM5LjA3OS42LS4wNzcuMDE5LS4wMTkgMS45NTQtMS44NTYgNi42NDgtMS44NTZzNi42MyAxLjgzNyA2LjY0OCAxLjg1NWMuMDk2LjA5NS4yMjQuMTQ1LjM1Mi4xNDUuMDg0IDAgLjE2OS0uMDIxLjI0Ni0uMDY0LjE5Ni0uMTEyLjI5NC0uMzM5LjIzOS0uNTU3em0tOS43NzgtMTIuNTg2QzEyLjQ1MiAxNC4wMzggNy4yMjEgMTQgNyAxNGMtLjU1MiAwLS45OTkuNDQ3LS45OTkuOTk4LS4wMDEuNTUyLjQ0NiAxIC45OTggMS4wMDIuMDI5IDAgMS45MjUuMDIyIDMuOTgzLjczNy0uNTkzLjY0LS45ODIgMS42MzQtLjk4MiAyLjc2MyAwIDEuOTM0IDEuMTE5IDMuNSAyLjUgMy41czIuNS0xLjU2NiAyLjUtMy41YzAtLjE3NC0uMDE5LS4zNC0uMDM3LS41MDcuMDEzIDAgLjAyNS4wMDcuMDM3LjAwNy4yNTYgMCAuNTEyLS4wOTguNzA3LS4yOTMuMzkxLS4zOTEuMzkxLTEuMDIzIDAtMS40MTR6TTI5IDE0Yy0uMjIxIDAtNS40NTEuMDM4LTguNzA3IDMuMjkzLS4zOTEuMzkxLS4zOTEgMS4wMjMgMCAxLjQxNC4xOTUuMTk1LjQ1MS4yOTMuNzA3LjI5My4wMTMgMCAuMDI0LS4wMDcuMDM2LS4wMDctLjAxNi4xNjctLjAzNi4zMzMtLjAzNi41MDcgMCAxLjkzNCAxLjExOSAzLjUgMi41IDMuNXMyLjUtMS41NjYgMi41LTMuNWMwLTEuMTI5LS4zODktMi4xMjMtLjk4Mi0yLjc2MyAyLjA1OC0uNzE1IDMuOTU0LS43MzcgMy45ODQtLjczNy41NTEtLjAwMi45OTgtLjQ1Ljk5Ny0xLjAwMi0uMDAxLS41NTEtLjQ0Ny0uOTk4LS45OTktLjk5OHoiLz48L3N2Zz4=" parent="1" vertex="1">
          <mxGeometry x="100" y="455" width="30" height="30" as="geometry" />
        </mxCell>
        <mxCell id="dNTlJmtYWJp2JSvYEbvU-11" value="" style="shape=image;verticalLabelPosition=bottom;verticalAlign=top;imageAspect=0;aspect=fixed;image=data:image/svg+xml,PHN2ZyB4bWxucz0iaHR0cDovL3d3dy53My5vcmcvMjAwMC9zdmciIHZpZXdCb3g9IjAgMCAzNiAzNiI+PHBhdGggZmlsbD0iI0ZGQ0M0RCIgZD0iTTM2IDE4YzAgOS45NDEtOC4wNTkgMTgtMTggMTgtOS45NCAwLTE4LTguMDU5LTE4LTE4QzAgOC4wNiA4LjA2IDAgMTggMGM5Ljk0MSAwIDE4IDguMDYgMTggMTgiLz48cGF0aCBmaWxsPSIjNjY0NTAwIiBkPSJNMjUuNDg1IDI5Ljg3OUMyNS40NCAyOS43IDI0LjMxNyAyNS41IDE4IDI1LjVjLTYuMzE4IDAtNy40NCA0LjItNy40ODUgNC4zNzktLjA1NS4yMTcuMDQzLjQ0Mi4yMzcuNTU0LjE5NS4xMDkuNDM5LjA3OS42LS4wNzcuMDE5LS4wMTkgMS45NTQtMS44NTYgNi42NDgtMS44NTZzNi42MyAxLjgzNyA2LjY0OCAxLjg1NWMuMDk2LjA5NS4yMjQuMTQ1LjM1Mi4xNDUuMDg0IDAgLjE2OS0uMDIxLjI0Ni0uMDY0LjE5Ni0uMTEyLjI5NC0uMzM5LjIzOS0uNTU3em0tOS43NzgtMTIuNTg2QzEyLjQ1MiAxNC4wMzggNy4yMjEgMTQgNyAxNGMtLjU1MiAwLS45OTkuNDQ3LS45OTkuOTk4LS4wMDEuNTUyLjQ0NiAxIC45OTggMS4wMDIuMDI5IDAgMS45MjUuMDIyIDMuOTgzLjczNy0uNTkzLjY0LS45ODIgMS42MzQtLjk4MiAyLjc2MyAwIDEuOTM0IDEuMTE5IDMuNSAyLjUgMy41czIuNS0xLjU2NiAyLjUtMy41YzAtLjE3NC0uMDE5LS4zNC0uMDM3LS41MDcuMDEzIDAgLjAyNS4wMDcuMDM3LjAwNy4yNTYgMCAuNTEyLS4wOTguNzA3LS4yOTMuMzkxLS4zOTEuMzkxLTEuMDIzIDAtMS40MTR6TTI5IDE0Yy0uMjIxIDAtNS40NTEuMDM4LTguNzA3IDMuMjkzLS4zOTEuMzkxLS4zOTEgMS4wMjMgMCAxLjQxNC4xOTUuMTk1LjQ1MS4yOTMuNzA3LjI5My4wMTMgMCAuMDI0LS4wMDcuMDM2LS4wMDctLjAxNi4xNjctLjAzNi4zMzMtLjAzNi41MDcgMCAxLjkzNCAxLjExOSAzLjUgMi41IDMuNXMyLjUtMS41NjYgMi41LTMuNWMwLTEuMTI5LS4zODktMi4xMjMtLjk4Mi0yLjc2MyAyLjA1OC0uNzE1IDMuOTU0LS43MzcgMy45ODQtLjczNy41NTEtLjAwMi45OTgtLjQ1Ljk5Ny0xLjAwMi0uMDAxLS41NTEtLjQ0Ny0uOTk4LS45OTktLjk5OHoiLz48L3N2Zz4=" parent="1" vertex="1">
          <mxGeometry x="490" y="375" width="30" height="30" as="geometry" />
        </mxCell>
        <mxCell id="dNTlJmtYWJp2JSvYEbvU-12" value="" style="shape=image;verticalLabelPosition=bottom;verticalAlign=top;imageAspect=0;aspect=fixed;image=data:image/svg+xml,PHN2ZyB4bWxucz0iaHR0cDovL3d3dy53My5vcmcvMjAwMC9zdmciIHZpZXdCb3g9IjAgMCAzNiAzNiI+PHBhdGggZmlsbD0iI0ZGQ0M0RCIgZD0iTTM2IDE4YzAgOS45NDEtOC4wNTkgMTgtMTggMTgtOS45NCAwLTE4LTguMDU5LTE4LTE4QzAgOC4wNiA4LjA2IDAgMTggMGM5Ljk0MSAwIDE4IDguMDYgMTggMTgiLz48cGF0aCBmaWxsPSIjQkREREY0IiBkPSJNMTggMTFjOC43NDkgMCAxNi4wMzMgNC41MDkgMTcuNjU2IDEwLjQ4NC4yMjItMS4xMjguMzQ0LTIuMjkyLjM0NC0zLjQ4NCAwLTkuOTQtOC4wNTktMTgtMTgtMThDOC4wNiAwIDAgOC4wNiAwIDE4YzAgMS4xOTIuMTIzIDIuMzU2LjM0NCAzLjQ4NEMxLjk2NyAxNS41MDkgOS4yNTIgMTEgMTggMTF6Ii8+PGVsbGlwc2UgZmlsbD0iIzY2NDUwMCIgY3g9IjExLjUiIGN5PSIxNi41IiByeD0iMi41IiByeT0iMy41Ii8+PGVsbGlwc2UgZmlsbD0iIzY2NDUwMCIgY3g9IjI0LjUiIGN5PSIxNi41IiByeD0iMi41IiByeT0iMy41Ii8+PHBhdGggZmlsbD0iIzY2NDUwMCIgZD0iTTUuOTk5IDEyYy0uMjA4IDAtLjQxOS0uMDY1LS41OTktLjItLjQ0Mi0uMzMxLS41MzEtLjk1OC0uMi0xLjRDOC40NjIgNi4wNSAxMi44MTYgNiAxMyA2Yy41NTIgMCAxIC40NDggMSAxIDAgLjU1MS0uNDQ1Ljk5OC0uOTk2IDEtLjE1NS4wMDItMy41NjguMDg2LTYuMjA0IDMuNi0uMTk2LjI2Mi0uNDk3LjQtLjgwMS40em0yNC4wMDIgMGMtLjMwNSAwLS42MDQtLjEzOC0uODAxLS40LTIuNjQtMy41MjEtNi4wNjEtMy41OTgtNi4yMDYtMy42LS41NS0uMDA2LS45OTQtLjQ1Ni0uOTkxLTEuMDA1QzIyLjAwNiA2LjQ0NCAyMi40NSA2IDIzIDZjLjE4NCAwIDQuNTM3LjA1IDcuOCA0LjQuMzMyLjQ0Mi4yNDIgMS4wNjktLjIgMS40LS4xOC4xMzUtLjM5LjItLjU5OS4yem0tNi41MTYgMTUuODc5QzIzLjQ3NCAyNy44MzUgMjIuMzQgMjMuNSAxOCAyMy41cy01LjQ3NCA0LjMzNS01LjQ4NSA0LjM3OWMtLjA1My4yMTMuMDQzLjQzMS4yMzEuNTQ0LjE4Ny4xMTIuNDMzLjA4Ni41OTYtLjA2LjAxMS0uMDA4IDEuMDE1LS44NjMgNC42NTgtLjg2MyAzLjU4OSAwIDQuNjE3LjgzIDQuNjU2Ljg2My4wOTUuMDkuMjE5LjEzNy4zNDQuMTM3LjA4NCAwIC4xNjktLjAyMS4yNDYtLjA2NC4xOTYtLjExMi4yOTQtLjMzOS4yMzktLjU1N3oiLz48L3N2Zz4=;fillColor=#C5A1DF;" parent="1" vertex="1">
          <mxGeometry x="490" y="555" width="30" height="30" as="geometry" />
        </mxCell>
        <mxCell id="dNTlJmtYWJp2JSvYEbvU-13" value="" style="shape=image;verticalLabelPosition=bottom;verticalAlign=top;imageAspect=0;aspect=fixed;image=data:image/svg+xml,PHN2ZyB4bWxucz0iaHR0cDovL3d3dy53My5vcmcvMjAwMC9zdmciIHZpZXdCb3g9IjAgMCAzNiAzNiI+PHBhdGggZmlsbD0iI0ZGQ0M0RCIgZD0iTTM2IDE4YzAgOS45NDEtOC4wNTkgMTgtMTggMTgtOS45NCAwLTE4LTguMDU5LTE4LTE4QzAgOC4wNiA4LjA2IDAgMTggMGM5Ljk0MSAwIDE4IDguMDYgMTggMTgiLz48ZWxsaXBzZSBmaWxsPSIjNjY0NTAwIiBjeD0iMTEuNSIgY3k9IjE2LjUiIHJ4PSIyLjUiIHJ5PSIzLjUiLz48ZWxsaXBzZSBmaWxsPSIjNjY0NTAwIiBjeD0iMjQuNSIgY3k9IjE2LjUiIHJ4PSIyLjUiIHJ5PSIzLjUiLz48cGF0aCBmaWxsPSIjNjY0NTAwIiBkPSJNMjUgMjZIMTFjLS41NTIgMC0xLS40NDctMS0xcy40NDgtMSAxLTFoMTRjLjU1MyAwIDEgLjQ0NyAxIDFzLS40NDcgMS0xIDF6Ii8+PC9zdmc+;fillColor=#C5A1DF;" parent="1" vertex="1">
          <mxGeometry x="490" y="715" width="30" height="30" as="geometry" />
        </mxCell>
        <mxCell id="yyME2PYQwBOCxPyAhfon-1" value="" style="shape=image;verticalLabelPosition=bottom;verticalAlign=top;imageAspect=0;aspect=fixed;image=data:image/svg+xml,PHN2ZyB4bWxucz0iaHR0cDovL3d3dy53My5vcmcvMjAwMC9zdmciIHZpZXdCb3g9IjAgMCAzNiAzNiI+PHBhdGggZmlsbD0iI0ZGQ0M0RCIgZD0iTTM2IDE4YzAgOS45NDEtOC4wNTkgMTgtMTggMTgtOS45NCAwLTE4LTguMDU5LTE4LTE4QzAgOC4wNiA4LjA2IDAgMTggMGM5Ljk0MSAwIDE4IDguMDYgMTggMTgiLz48ZWxsaXBzZSBmaWxsPSIjNjY0NTAwIiBjeD0iMTEuNSIgY3k9IjE2LjUiIHJ4PSIyLjUiIHJ5PSIzLjUiLz48ZWxsaXBzZSBmaWxsPSIjNjY0NTAwIiBjeD0iMjQuNSIgY3k9IjE2LjUiIHJ4PSIyLjUiIHJ5PSIzLjUiLz48cGF0aCBmaWxsPSIjNjY0NTAwIiBkPSJNMjUgMjZIMTFjLS41NTIgMC0xLS40NDctMS0xcy40NDgtMSAxLTFoMTRjLjU1MyAwIDEgLjQ0NyAxIDFzLS40NDcgMS0xIDF6Ii8+PC9zdmc+;fillColor=#C5A1DF;" parent="1" vertex="1">
          <mxGeometry x="100" y="635" width="30" height="30" as="geometry" />
        </mxCell>
      </root>
    </mxGraphModel>
  </diagram>
</mxfile>
